<mxfile host="www.draw.io" modified="2020-03-09T08:44:44.904Z" agent="Mozilla/5.0 (Macintosh; Intel Mac OS X 10_14_6) AppleWebKit/537.36 (KHTML, like Gecko) Chrome/80.0.3987.122 Safari/537.36" etag="EQcv5qLoEVEuLjXWcsc6" version="12.8.1" type="github">
  <diagram id="dAQU7yJ9uKPo3-hEbc-3" name="第 1 页">
    <mxGraphModel dx="946" dy="542" grid="1" gridSize="10" guides="1" tooltips="1" connect="1" arrows="1" fold="1" page="1" pageScale="1" pageWidth="827" pageHeight="1169" math="0" shadow="0">
      <root>
        <mxCell id="0" />
        <mxCell id="1" parent="0" />
        <mxCell id="5smJPHxy9m20qphjRSUp-1" value="&lt;font color=&quot;#ffffff&quot;&gt;key&lt;/font&gt;" style="ellipse;whiteSpace=wrap;html=1;fillColor=#FF6666;" vertex="1" parent="1">
          <mxGeometry x="210" y="210" width="110" height="60" as="geometry" />
        </mxCell>
        <mxCell id="5smJPHxy9m20qphjRSUp-2" value="&lt;font color=&quot;#ffffff&quot;&gt;&quot;hello redis&quot;&lt;/font&gt;" style="rounded=1;whiteSpace=wrap;html=1;fillColor=#FF66FF;" vertex="1" parent="1">
          <mxGeometry x="460" y="210" width="120" height="60" as="geometry" />
        </mxCell>
        <mxCell id="5smJPHxy9m20qphjRSUp-3" value="" style="endArrow=classic;html=1;exitX=1;exitY=0.5;exitDx=0;exitDy=0;entryX=0;entryY=0.5;entryDx=0;entryDy=0;" edge="1" parent="1" source="5smJPHxy9m20qphjRSUp-1" target="5smJPHxy9m20qphjRSUp-2">
          <mxGeometry width="50" height="50" relative="1" as="geometry">
            <mxPoint x="390" y="310" as="sourcePoint" />
            <mxPoint x="440" y="260" as="targetPoint" />
          </mxGeometry>
        </mxCell>
      </root>
    </mxGraphModel>
  </diagram>
</mxfile>
